<svg xmlns="http://www.w3.org/2000/svg" height="20" viewBox="0 -960 960 960" width="20"><path fill="#23B3FF" d="m290-290 283-97 97-283-283 97-97 283Zm190.053-143q-19.553 1-33.303-13.197Q433-460.395 433-479.947q0-19.553 13.497-33.303Q459.995-527 479.947-527q19.953 0 33.503 13.497Q527-500.005 527-480.053q0 19.953-13.497 33.503Q500.005-433 480.053-433Zm.223 361q-85.183 0-159.329-31.847t-129.713-87.512q-55.567-55.666-87.4-129.699Q72-395.091 72-480.458q0-85.449 31.847-159.095t87.512-129.213q55.666-55.567 129.699-87.4Q395.091-888 480.458-888q85.449 0 159.095 31.847 73.646 31.846 129.213 87.512 55.567 55.666 87.4 129.465Q888-565.377 888-480.276q0 85.183-31.847 159.329-31.846 74.146-87.512 129.713-55.666 55.567-129.465 87.4Q565.377-72 480.276-72ZM480-185q123.5 0 209.25-85.75T775-480q0-123.5-85.75-209.25T480-775q-123.5 0-209.25 85.75T185-480q0 123.5 85.75 209.25T480-185Zm0-295Z"/></svg>